<svg xmlns="http://www.w3.org/2000/svg" xmlns:xlink="http://www.w3.org/1999/xlink" width="50" zoomAndPan="magnify" viewBox="0 0 37.5 37.499999" height="50" preserveAspectRatio="xMidYMid meet" version="1.2"><defs><clipPath id="33e6267afe"><path d="M 2.09375 0.910156 L 34.660156 0.910156 L 34.660156 36 L 2.09375 36 Z M 2.09375 0.910156 "/></clipPath></defs><g id="ba000aed4e"><g clip-rule="nonzero" clip-path="url(#33e6267afe)"><path style=" stroke:none;fill-rule:nonzero;fill:#ffffff;fill-opacity:1;" d="M 25.625 23.878906 C 26.742188 21.761719 27.492188 19.523438 27.878906 17.164062 C 28.132812 14.609375 27.109375 13.128906 25.078125 12.433594 C 23.050781 11.742188 20.113281 11.851562 18.398438 13.113281 C 16.683594 14.371094 16.207031 16.789062 16.597656 18.949219 C 16.800781 20.019531 17.199219 21.015625 17.789062 21.933594 C 18.382812 22.855469 19.121094 23.628906 20.011719 24.261719 C 20.796875 24.84375 21.667969 25.222656 22.625 25.398438 C 22.105469 25.976562 21.492188 26.421875 20.777344 26.734375 C 20.066406 27.046875 19.320312 27.195312 18.542969 27.183594 C 17.613281 27.0625 16.734375 26.785156 15.902344 26.355469 C 15.070312 25.925781 14.335938 25.367188 13.699219 24.675781 C 12.257812 23.140625 11.199219 21.375 10.523438 19.378906 C 9.675781 17.421875 9.515625 15.410156 10.039062 13.34375 C 10.808594 11.152344 12.140625 9.386719 14.039062 8.042969 C 14.851562 7.457031 15.742188 7.027344 16.707031 6.75 C 17.671875 6.472656 18.65625 6.363281 19.660156 6.429688 C 20.847656 6.464844 21.976562 6.75 23.042969 7.277344 C 24.109375 7.804688 25.015625 8.535156 25.765625 9.460938 C 20.84375 3.308594 15.644531 5.613281 12.613281 8.230469 C 9.585938 10.84375 8.714844 13.789062 8.992188 16.6875 C 9.269531 19.585938 10.707031 22.363281 12.578125 25.144531 C 14.445312 27.929688 16.738281 30.683594 18.796875 30.984375 C 20.859375 31.28125 22.679688 29.105469 24.363281 26.222656 C 24.519531 25.96875 24.664062 25.714844 24.804688 25.453125 C 25.324219 25.390625 25.835938 25.289062 26.339844 25.152344 C 26.609375 25.078125 26.886719 24.992188 27.171875 24.890625 C 27.457031 24.792969 27.753906 24.683594 28.0625 24.5625 C 29.035156 24.183594 29.949219 23.703125 30.808594 23.117188 C 31.789062 22.441406 32.605469 21.605469 33.253906 20.609375 C 33.613281 20.046875 33.902344 19.449219 34.113281 18.816406 C 34.355469 18.09375 34.515625 17.351562 34.597656 16.59375 C 34.710938 15.695312 34.710938 14.796875 34.597656 13.894531 C 34.476562 12.796875 34.207031 11.40625 34.046875 10.6875 C 33.980469 10.347656 33.871094 10.019531 33.714844 9.707031 C 33.609375 9.488281 33.460938 9.128906 33.316406 8.796875 C 33.023438 8.171875 32.679688 7.578125 32.277344 7.015625 C 31.882812 6.464844 31.449219 5.953125 30.96875 5.476562 C 30.492188 5 29.980469 4.566406 29.433594 4.175781 C 28.121094 3.199219 26.695312 2.449219 25.148438 1.921875 C 23.539062 1.390625 21.890625 1.082031 20.195312 1 C 18.546875 0.921875 16.921875 1.078125 15.316406 1.472656 C 13.710938 1.863281 12.195312 2.476562 10.769531 3.308594 C 7.859375 5.023438 5.621094 7.378906 4.054688 10.375 C 2.5 13.371094 1.871094 16.546875 2.171875 19.910156 C 2.488281 23.269531 3.664062 26.289062 5.710938 28.976562 C 6.695312 30.289062 7.851562 31.433594 9.167969 32.414062 C 10.488281 33.394531 11.917969 34.167969 13.460938 34.734375 C 18.9375 36.710938 25.648438 35.820312 30.195312 32.113281 C 30.292969 32.035156 30.351562 31.933594 30.371094 31.804688 C 30.386719 31.675781 30.355469 31.5625 30.277344 31.460938 C 30.199219 31.363281 30.09375 31.304688 29.96875 31.28125 C 29.839844 31.265625 29.726562 31.300781 29.625 31.382812 C 27.171875 33.285156 24.402344 34.410156 21.320312 34.757812 C 18.226562 35.085938 15.265625 34.59375 12.445312 33.28125 C 11.097656 32.652344 9.863281 31.847656 8.746094 30.867188 C 7.570312 29.835938 6.542969 28.675781 5.671875 27.375 C 3.960938 24.785156 3.070312 21.9375 3.003906 18.832031 C 2.964844 17.308594 3.132812 15.808594 3.511719 14.332031 C 3.886719 12.855469 4.457031 11.457031 5.222656 10.136719 C 5.988281 8.820312 6.917969 7.628906 8.011719 6.566406 C 9.109375 5.507812 10.328125 4.613281 11.667969 3.890625 C 14.394531 2.390625 17.308594 1.742188 20.414062 1.945312 C 21.960938 2.054688 23.472656 2.351562 24.949219 2.839844 C 26.453125 3.320312 27.828125 4.050781 29.070312 5.023438 C 29.472656 5.316406 29.855469 5.636719 30.214844 5.984375 C 30.597656 6.351562 30.945312 6.746094 31.261719 7.167969 C 31.878906 8.007812 32.351562 8.925781 32.683594 9.914062 C 33.410156 12.019531 33.640625 14.175781 33.375 16.386719 C 33.136719 18.285156 32.324219 19.890625 30.9375 21.207031 C 29.546875 22.582031 27.890625 23.457031 25.972656 23.839844 Z M 23.894531 23.929688 C 22.6875 23.863281 21.589844 23.476562 20.613281 22.761719 C 19.898438 22.140625 19.347656 21.398438 18.957031 20.539062 C 18.566406 19.675781 18.375 18.769531 18.382812 17.824219 C 18.289062 15.8125 18.875 13.625 20.644531 12.910156 C 21.15625 12.761719 21.679688 12.679688 22.210938 12.671875 C 22.746094 12.664062 23.269531 12.726562 23.785156 12.863281 C 24.304688 13 24.792969 13.203125 25.253906 13.472656 C 25.714844 13.738281 26.128906 14.066406 26.503906 14.449219 C 27.65625 15.910156 27.023438 18.0625 26.148438 20.0625 C 25.539062 21.433594 24.785156 22.722656 23.894531 23.929688 Z M 23.894531 23.929688 "/></g></g></svg>