<svg xmlns="http://www.w3.org/2000/svg" xmlns:xlink="http://www.w3.org/1999/xlink" width="200" zoomAndPan="magnify" viewBox="0 0 150 37.5" height="50" preserveAspectRatio="xMidYMid meet" version="1.2"><defs><clipPath id="9ad563a7eb"><path d="M 0.988281 0 L 149.011719 0 L 149.011719 37.007812 L 0.988281 37.007812 Z M 0.988281 0 "/></clipPath><clipPath id="bca58f1a72"><path d="M 27.144531 25.632812 L 28.347656 25.632812 L 28.347656 26.832031 L 27.144531 26.832031 Z M 27.144531 25.632812 "/></clipPath><clipPath id="8d40377d0b"><path d="M 27.746094 25.632812 C 27.414062 25.632812 27.144531 25.902344 27.144531 26.230469 C 27.144531 26.5625 27.414062 26.832031 27.746094 26.832031 C 28.078125 26.832031 28.347656 26.5625 28.347656 26.230469 C 28.347656 25.902344 28.078125 25.632812 27.746094 25.632812 Z M 27.746094 25.632812 "/></clipPath></defs><g id="ab3be66a41"><g clip-rule="nonzero" clip-path="url(#9ad563a7eb)"><rect x="0" width="150" y="0" height="37.5" style="fill:#ffffff;fill-opacity:1;stroke:none;"/><rect x="0" width="150" y="0" height="37.5" style="fill:#ffffff;fill-opacity:1;stroke:none;"/></g><path style=" stroke:none;fill-rule:nonzero;fill:#4a5f74;fill-opacity:1;" d="M 41.382812 6.875 C 42.542969 6.875 43.398438 7.207031 43.945312 7.867188 C 44.488281 8.523438 44.761719 9.425781 44.761719 10.574219 L 44.761719 18.074219 C 44.761719 19.222656 44.488281 20.121094 43.945312 20.773438 C 43.398438 21.425781 42.542969 21.75 41.382812 21.75 L 37.898438 21.75 L 37.898438 6.875 Z M 41.363281 20.242188 C 41.957031 20.242188 42.398438 20.0625 42.6875 19.699219 C 42.980469 19.339844 43.125 18.820312 43.125 18.136719 L 43.125 10.488281 C 43.125 9.808594 42.980469 9.289062 42.6875 8.925781 C 42.398438 8.566406 41.949219 8.382812 41.339844 8.382812 L 39.558594 8.382812 L 39.558594 20.242188 Z M 41.363281 20.242188 "/><path style=" stroke:none;fill-rule:nonzero;fill:#4a5f74;fill-opacity:1;" d="M 49.625 6.875 C 50.800781 6.875 51.648438 7.167969 52.164062 7.746094 C 52.679688 8.328125 52.941406 9.171875 52.941406 10.277344 L 52.941406 11.488281 C 52.941406 12.308594 52.789062 12.976562 52.492188 13.484375 C 52.195312 13.996094 51.730469 14.351562 51.089844 14.550781 C 51.773438 14.746094 52.253906 15.113281 52.535156 15.644531 C 52.820312 16.171875 52.964844 16.84375 52.964844 17.648438 L 52.964844 19.964844 C 52.964844 20.292969 52.976562 20.609375 53.003906 20.914062 C 53.03125 21.214844 53.117188 21.496094 53.261719 21.75 L 51.582031 21.75 C 51.480469 21.539062 51.410156 21.308594 51.367188 21.0625 C 51.328125 20.8125 51.308594 20.441406 51.308594 19.945312 L 51.308594 17.605469 C 51.308594 16.769531 51.117188 16.195312 50.742188 15.875 C 50.367188 15.558594 49.832031 15.398438 49.136719 15.398438 L 47.96875 15.398438 L 47.96875 21.75 L 46.308594 21.75 L 46.308594 6.875 Z M 49.203125 13.890625 C 49.867188 13.890625 50.382812 13.75 50.75 13.476562 C 51.121094 13.199219 51.308594 12.65625 51.308594 11.847656 L 51.308594 10.425781 C 51.308594 9.746094 51.175781 9.234375 50.914062 8.894531 C 50.648438 8.554688 50.207031 8.382812 49.582031 8.382812 L 47.96875 8.382812 L 47.96875 13.890625 Z M 49.203125 13.890625 "/><path style=" stroke:none;fill-rule:nonzero;fill:#4a5f74;fill-opacity:1;" d="M 54.679688 19.691406 L 56.277344 19.691406 L 56.277344 21.75 L 54.679688 21.75 Z M 54.679688 19.691406 "/><path style=" stroke:none;fill-rule:nonzero;fill:#4a5f74;fill-opacity:1;" d="M 66.347656 13.804688 L 66.347656 15.3125 L 62.925781 15.3125 L 62.925781 21.75 L 61.269531 21.75 L 61.269531 6.875 L 67.175781 6.875 L 67.175781 8.382812 L 62.925781 8.382812 L 62.925781 13.804688 Z M 66.347656 13.804688 "/><path style=" stroke:none;fill-rule:nonzero;fill:#4a5f74;fill-opacity:1;" d="M 73.785156 13.464844 L 73.785156 14.949219 L 70.152344 14.949219 L 70.152344 20.242188 L 74.613281 20.242188 L 74.613281 21.75 L 68.492188 21.75 L 68.492188 6.875 L 74.613281 6.875 L 74.613281 8.382812 L 70.152344 8.382812 L 70.152344 13.464844 Z M 73.785156 13.464844 "/><path style=" stroke:none;fill-rule:nonzero;fill:#4a5f74;fill-opacity:1;" d="M 76.140625 21.75 L 76.140625 6.875 L 77.800781 6.875 L 77.800781 20.242188 L 82.050781 20.242188 L 82.050781 21.75 Z M 76.140625 21.75 "/><path style=" stroke:none;fill-rule:nonzero;fill:#4a5f74;fill-opacity:1;" d="M 83.300781 6.875 L 84.960938 6.875 L 84.960938 21.75 L 83.300781 21.75 Z M 83.300781 6.875 "/><path style=" stroke:none;fill-rule:nonzero;fill:#4a5f74;fill-opacity:1;" d="M 89.910156 6.875 C 91.085938 6.875 91.933594 7.199219 92.457031 7.84375 C 92.984375 8.492188 93.246094 9.378906 93.246094 10.507812 L 93.246094 12.296875 C 93.246094 13.488281 92.964844 14.382812 92.40625 14.984375 C 91.84375 15.585938 90.972656 15.886719 89.78125 15.886719 L 88.316406 15.886719 L 88.316406 21.75 L 86.65625 21.75 L 86.65625 6.875 Z M 89.78125 14.398438 C 90.40625 14.398438 90.867188 14.246094 91.160156 13.941406 C 91.460938 13.636719 91.609375 13.125 91.609375 12.402344 L 91.609375 10.425781 C 91.609375 9.746094 91.480469 9.234375 91.214844 8.894531 C 90.953125 8.554688 90.515625 8.382812 89.910156 8.382812 L 88.316406 8.382812 L 88.316406 14.398438 Z M 89.78125 14.398438 "/><path style=" stroke:none;fill-rule:nonzero;fill:#4a5f74;fill-opacity:1;" d="M 99.894531 13.464844 L 99.894531 14.949219 L 96.261719 14.949219 L 96.261719 20.242188 L 100.722656 20.242188 L 100.722656 21.75 L 94.601562 21.75 L 94.601562 6.875 L 100.722656 6.875 L 100.722656 8.382812 L 96.261719 8.382812 L 96.261719 13.464844 Z M 99.894531 13.464844 "/><path style=" stroke:none;fill-rule:nonzero;fill:#4a5f74;fill-opacity:1;" d="M 108.753906 6.726562 C 109.902344 6.726562 110.75 7.066406 111.296875 7.746094 C 111.839844 8.429688 112.113281 9.335938 112.113281 10.46875 L 112.113281 11.804688 L 110.542969 11.804688 L 110.542969 10.382812 C 110.542969 9.703125 110.402344 9.175781 110.125 8.800781 C 109.847656 8.425781 109.40625 8.234375 108.796875 8.234375 C 108.203125 8.234375 107.765625 8.425781 107.480469 8.800781 C 107.199219 9.175781 107.058594 9.703125 107.058594 10.382812 L 107.058594 18.246094 C 107.058594 18.925781 107.199219 19.453125 107.480469 19.828125 C 107.765625 20.203125 108.203125 20.390625 108.796875 20.390625 C 109.40625 20.390625 109.847656 20.203125 110.125 19.828125 C 110.402344 19.453125 110.542969 18.925781 110.542969 18.246094 L 110.542969 16.308594 L 112.113281 16.308594 L 112.113281 18.160156 C 112.113281 19.292969 111.839844 20.199219 111.296875 20.878906 C 110.75 21.558594 109.902344 21.898438 108.753906 21.898438 C 107.621094 21.898438 106.785156 21.558594 106.238281 20.878906 C 105.691406 20.199219 105.421875 19.292969 105.421875 18.160156 L 105.421875 10.46875 C 105.421875 9.902344 105.484375 9.386719 105.617188 8.925781 C 105.753906 8.464844 105.960938 8.074219 106.234375 7.746094 C 106.511719 7.421875 106.863281 7.171875 107.277344 6.992188 C 107.695312 6.816406 108.1875 6.726562 108.753906 6.726562 Z M 108.753906 6.726562 "/><path style=" stroke:none;fill-rule:nonzero;fill:#4a5f74;fill-opacity:1;" d="M 113.492188 10.46875 C 113.492188 9.320312 113.773438 8.410156 114.332031 7.738281 C 114.890625 7.0625 115.742188 6.726562 116.890625 6.726562 C 118.039062 6.726562 118.898438 7.0625 119.464844 7.738281 C 120.027344 8.410156 120.3125 9.320312 120.3125 10.46875 L 120.3125 18.160156 C 120.3125 19.292969 120.027344 20.199219 119.464844 20.878906 C 118.898438 21.558594 118.039062 21.898438 116.890625 21.898438 C 115.742188 21.898438 114.890625 21.558594 114.332031 20.878906 C 113.773438 20.199219 113.492188 19.292969 113.492188 18.160156 Z M 115.128906 18.246094 C 115.128906 18.925781 115.273438 19.453125 115.566406 19.828125 C 115.855469 20.203125 116.296875 20.390625 116.890625 20.390625 C 117.5 20.390625 117.949219 20.203125 118.230469 19.828125 C 118.515625 19.453125 118.65625 18.925781 118.65625 18.246094 L 118.65625 10.382812 C 118.65625 9.703125 118.515625 9.175781 118.230469 8.800781 C 117.949219 8.425781 117.5 8.234375 116.890625 8.234375 C 116.296875 8.234375 115.855469 8.425781 115.566406 8.800781 C 115.273438 9.175781 115.128906 9.703125 115.128906 10.382812 Z M 115.128906 18.246094 "/><path style=" stroke:none;fill-rule:nonzero;fill:#4a5f74;fill-opacity:1;" d="M 125.007812 6.726562 C 126.140625 6.726562 126.976562 7.0625 127.515625 7.738281 C 128.054688 8.410156 128.324219 9.316406 128.324219 10.449219 L 128.324219 10.847656 L 126.753906 10.847656 L 126.753906 10.359375 C 126.753906 9.679688 126.617188 9.15625 126.347656 8.789062 C 126.078125 8.421875 125.644531 8.234375 125.050781 8.234375 C 124.457031 8.234375 124.023438 8.421875 123.753906 8.789062 C 123.484375 9.15625 123.351562 9.671875 123.351562 10.339844 C 123.351562 10.894531 123.472656 11.375 123.722656 11.785156 C 123.972656 12.195312 124.277344 12.574219 124.648438 12.921875 C 125.015625 13.269531 125.414062 13.609375 125.847656 13.941406 C 126.277344 14.277344 126.679688 14.640625 127.046875 15.039062 C 127.417969 15.433594 127.722656 15.882812 127.972656 16.386719 C 128.21875 16.890625 128.34375 17.488281 128.34375 18.183594 C 128.34375 19.316406 128.070312 20.21875 127.527344 20.890625 C 126.980469 21.5625 126.132812 21.898438 124.988281 21.898438 C 123.839844 21.898438 122.996094 21.5625 122.460938 20.890625 C 121.921875 20.21875 121.652344 19.316406 121.652344 18.183594 L 121.652344 17.332031 L 123.203125 17.332031 L 123.203125 18.265625 C 123.203125 18.945312 123.34375 19.472656 123.628906 19.839844 C 123.910156 20.207031 124.347656 20.390625 124.945312 20.390625 C 125.539062 20.390625 125.976562 20.207031 126.261719 19.839844 C 126.546875 19.472656 126.6875 18.945312 126.6875 18.265625 C 126.6875 17.714844 126.5625 17.234375 126.3125 16.832031 C 126.066406 16.429688 125.757812 16.054688 125.390625 15.707031 C 125.023438 15.359375 124.625 15.019531 124.199219 14.6875 C 123.777344 14.351562 123.378906 13.988281 123.011719 13.59375 C 122.644531 13.195312 122.335938 12.746094 122.085938 12.242188 C 121.839844 11.742188 121.714844 11.140625 121.714844 10.449219 C 121.714844 9.300781 121.984375 8.394531 122.523438 7.726562 C 123.0625 7.0625 123.890625 6.726562 125.007812 6.726562 Z M 125.007812 6.726562 "/><path style=" stroke:none;fill-rule:nonzero;fill:#4a5f74;fill-opacity:1;" d="M 131.957031 21.75 L 131.957031 8.382812 L 129.214844 8.382812 L 129.214844 6.875 L 136.355469 6.875 L 136.355469 8.382812 L 133.613281 8.382812 L 133.613281 21.75 Z M 131.957031 21.75 "/><path style=" stroke:none;fill-rule:nonzero;fill:#4a5f74;fill-opacity:1;" d="M 138.371094 18.753906 L 137.800781 21.75 L 136.269531 21.75 L 139.117188 6.875 L 141.515625 6.875 L 144.367188 21.75 L 142.707031 21.75 L 142.132812 18.753906 Z M 138.585938 17.332031 L 141.902344 17.332031 L 140.21875 8.746094 Z M 138.585938 17.332031 "/><path style=" stroke:none;fill-rule:nonzero;fill:#4a5f74;fill-opacity:1;" d="M 41.277344 26.921875 C 41.257812 26.964844 41.226562 26.984375 41.183594 26.984375 C 41.15625 26.984375 41.117188 26.964844 41.066406 26.921875 C 41.019531 26.878906 40.957031 26.832031 40.875 26.777344 C 40.792969 26.726562 40.695312 26.675781 40.574219 26.632812 C 40.453125 26.589844 40.300781 26.566406 40.121094 26.566406 C 39.945312 26.566406 39.785156 26.59375 39.648438 26.644531 C 39.515625 26.695312 39.402344 26.765625 39.308594 26.851562 C 39.21875 26.941406 39.152344 27.042969 39.105469 27.160156 C 39.058594 27.273438 39.035156 27.394531 39.035156 27.523438 C 39.035156 27.6875 39.066406 27.828125 39.136719 27.9375 C 39.210938 28.042969 39.304688 28.136719 39.417969 28.214844 C 39.535156 28.289062 39.664062 28.351562 39.8125 28.40625 C 39.960938 28.457031 40.109375 28.507812 40.265625 28.558594 C 40.421875 28.613281 40.570312 28.667969 40.71875 28.726562 C 40.867188 28.789062 40.996094 28.867188 41.109375 28.960938 C 41.226562 29.054688 41.320312 29.164062 41.390625 29.300781 C 41.460938 29.433594 41.5 29.601562 41.5 29.804688 C 41.5 30.011719 41.460938 30.207031 41.390625 30.386719 C 41.320312 30.570312 41.21875 30.726562 41.085938 30.863281 C 40.949219 30.996094 40.785156 31.101562 40.589844 31.179688 C 40.394531 31.253906 40.175781 31.292969 39.925781 31.292969 C 39.601562 31.292969 39.320312 31.238281 39.085938 31.121094 C 38.855469 31.007812 38.648438 30.851562 38.476562 30.652344 L 38.574219 30.5 C 38.597656 30.464844 38.628906 30.449219 38.667969 30.449219 C 38.6875 30.449219 38.714844 30.464844 38.746094 30.492188 C 38.78125 30.519531 38.820312 30.554688 38.867188 30.59375 C 38.914062 30.632812 38.96875 30.675781 39.035156 30.726562 C 39.097656 30.773438 39.171875 30.816406 39.257812 30.855469 C 39.34375 30.894531 39.441406 30.933594 39.550781 30.960938 C 39.664062 30.988281 39.792969 31 39.933594 31 C 40.125 31 40.296875 30.972656 40.453125 30.914062 C 40.605469 30.851562 40.734375 30.773438 40.839844 30.671875 C 40.945312 30.570312 41.023438 30.449219 41.082031 30.308594 C 41.136719 30.167969 41.164062 30.019531 41.164062 29.859375 C 41.164062 29.683594 41.128906 29.542969 41.058594 29.429688 C 40.988281 29.316406 40.894531 29.222656 40.777344 29.148438 C 40.664062 29.074219 40.53125 29.011719 40.382812 28.960938 C 40.238281 28.910156 40.085938 28.859375 39.933594 28.8125 C 39.777344 28.761719 39.625 28.707031 39.476562 28.648438 C 39.332031 28.585938 39.199219 28.511719 39.085938 28.417969 C 38.96875 28.324219 38.875 28.207031 38.804688 28.066406 C 38.734375 27.925781 38.699219 27.75 38.699219 27.539062 C 38.699219 27.375 38.730469 27.21875 38.792969 27.066406 C 38.855469 26.914062 38.945312 26.777344 39.066406 26.660156 C 39.1875 26.542969 39.335938 26.449219 39.511719 26.382812 C 39.6875 26.308594 39.890625 26.273438 40.117188 26.273438 C 40.375 26.273438 40.601562 26.3125 40.804688 26.394531 C 41.007812 26.476562 41.191406 26.597656 41.359375 26.765625 Z M 41.277344 26.921875 "/><path style=" stroke:none;fill-rule:nonzero;fill:#4a5f74;fill-opacity:1;" d="M 45.554688 30.945312 L 45.546875 31.238281 L 42.601562 31.238281 L 42.601562 26.328125 L 45.546875 26.328125 L 45.546875 26.625 L 42.960938 26.625 L 42.960938 28.605469 L 45.113281 28.605469 L 45.113281 28.894531 L 42.960938 28.894531 L 42.960938 30.945312 Z M 45.554688 30.945312 "/><path style=" stroke:none;fill-rule:nonzero;fill:#4a5f74;fill-opacity:1;" d="M 47.835938 28.753906 C 48.054688 28.753906 48.25 28.730469 48.421875 28.675781 C 48.59375 28.625 48.742188 28.546875 48.859375 28.453125 C 48.980469 28.355469 49.070312 28.238281 49.132812 28.101562 C 49.195312 27.964844 49.226562 27.8125 49.226562 27.640625 C 49.226562 27.289062 49.113281 27.03125 48.882812 26.863281 C 48.65625 26.695312 48.324219 26.609375 47.886719 26.609375 L 46.988281 26.609375 L 46.988281 28.753906 Z M 50.019531 31.238281 L 49.710938 31.238281 C 49.671875 31.238281 49.636719 31.234375 49.609375 31.222656 C 49.585938 31.210938 49.5625 31.183594 49.539062 31.148438 L 47.960938 29.15625 C 47.941406 29.132812 47.925781 29.109375 47.902344 29.089844 C 47.886719 29.074219 47.863281 29.058594 47.839844 29.046875 C 47.816406 29.035156 47.785156 29.03125 47.753906 29.023438 C 47.71875 29.019531 47.675781 29.019531 47.628906 29.019531 L 46.988281 29.019531 L 46.988281 31.238281 L 46.628906 31.238281 L 46.628906 26.328125 L 47.886719 26.328125 C 48.449219 26.328125 48.871094 26.4375 49.152344 26.65625 C 49.4375 26.875 49.578125 27.195312 49.578125 27.621094 C 49.578125 27.808594 49.542969 27.976562 49.480469 28.132812 C 49.414062 28.285156 49.320312 28.421875 49.199219 28.539062 C 49.078125 28.65625 48.933594 28.75 48.757812 28.824219 C 48.585938 28.898438 48.390625 28.949219 48.175781 28.976562 C 48.234375 29.011719 48.28125 29.058594 48.328125 29.117188 Z M 50.019531 31.238281 "/><path style=" stroke:none;fill-rule:nonzero;fill:#4a5f74;fill-opacity:1;" d="M 50.839844 26.328125 L 51.203125 26.328125 L 51.203125 31.238281 L 50.839844 31.238281 Z M 50.839844 26.328125 "/><path style=" stroke:none;fill-rule:nonzero;fill:#4a5f74;fill-opacity:1;" d="M 55.601562 30.945312 L 55.59375 31.238281 L 52.648438 31.238281 L 52.648438 26.328125 L 55.59375 26.328125 L 55.59375 26.625 L 53.007812 26.625 L 53.007812 28.605469 L 55.160156 28.605469 L 55.160156 28.894531 L 53.007812 28.894531 L 53.007812 30.945312 Z M 55.601562 30.945312 "/><path style=" stroke:none;fill-rule:nonzero;fill:#4a5f74;fill-opacity:1;" d="M 60.8125 28.78125 C 60.8125 29.160156 60.753906 29.503906 60.640625 29.804688 C 60.527344 30.109375 60.371094 30.367188 60.164062 30.578125 C 59.957031 30.792969 59.710938 30.957031 59.421875 31.070312 C 59.132812 31.183594 58.816406 31.238281 58.472656 31.238281 L 56.675781 31.238281 L 56.675781 26.328125 L 58.472656 26.328125 C 58.816406 26.328125 59.132812 26.382812 59.421875 26.5 C 59.710938 26.613281 59.957031 26.773438 60.164062 26.988281 C 60.371094 27.199219 60.527344 27.457031 60.640625 27.761719 C 60.753906 28.066406 60.8125 28.40625 60.8125 28.78125 Z M 60.445312 28.78125 C 60.445312 28.4375 60.398438 28.132812 60.304688 27.867188 C 60.210938 27.597656 60.074219 27.371094 59.902344 27.1875 C 59.726562 27 59.519531 26.859375 59.273438 26.761719 C 59.03125 26.664062 58.765625 26.617188 58.472656 26.617188 L 57.035156 26.617188 L 57.035156 30.949219 L 58.472656 30.949219 C 58.765625 30.949219 59.03125 30.902344 59.273438 30.804688 C 59.519531 30.710938 59.726562 30.570312 59.902344 30.382812 C 60.074219 30.199219 60.210938 29.972656 60.304688 29.703125 C 60.398438 29.433594 60.445312 29.128906 60.445312 28.78125 Z M 60.445312 28.78125 "/><path style=" stroke:none;fill-rule:nonzero;fill:#4a5f74;fill-opacity:1;" d="M 64.488281 29.457031 L 63.488281 26.972656 C 63.457031 26.894531 63.421875 26.796875 63.386719 26.679688 C 63.375 26.738281 63.359375 26.789062 63.34375 26.839844 C 63.328125 26.890625 63.308594 26.933594 63.289062 26.976562 L 62.292969 29.457031 Z M 65.578125 31.238281 L 65.300781 31.238281 C 65.269531 31.238281 65.242188 31.230469 65.21875 31.214844 C 65.199219 31.199219 65.183594 31.175781 65.171875 31.144531 L 64.597656 29.71875 L 62.1875 29.71875 L 61.605469 31.144531 C 61.597656 31.171875 61.582031 31.195312 61.558594 31.210938 C 61.535156 31.230469 61.507812 31.238281 61.476562 31.238281 L 61.207031 31.238281 L 63.214844 26.328125 L 63.566406 26.328125 Z M 65.578125 31.238281 "/><path style=" stroke:none;fill-rule:nonzero;fill:#4a5f74;fill-opacity:1;" d="M 70.527344 28.78125 C 70.527344 29.160156 70.46875 29.503906 70.355469 29.804688 C 70.242188 30.109375 70.082031 30.367188 69.875 30.578125 C 69.671875 30.792969 69.425781 30.957031 69.136719 31.070312 C 68.847656 31.183594 68.53125 31.238281 68.1875 31.238281 L 66.390625 31.238281 L 66.390625 26.328125 L 68.1875 26.328125 C 68.53125 26.328125 68.847656 26.382812 69.136719 26.5 C 69.425781 26.613281 69.671875 26.773438 69.875 26.988281 C 70.082031 27.199219 70.242188 27.457031 70.355469 27.761719 C 70.46875 28.066406 70.527344 28.40625 70.527344 28.78125 Z M 70.160156 28.78125 C 70.160156 28.4375 70.113281 28.132812 70.019531 27.867188 C 69.925781 27.597656 69.789062 27.371094 69.613281 27.1875 C 69.441406 27 69.230469 26.859375 68.988281 26.761719 C 68.746094 26.664062 68.476562 26.617188 68.1875 26.617188 L 66.75 26.617188 L 66.75 30.949219 L 68.1875 30.949219 C 68.476562 30.949219 68.746094 30.902344 68.988281 30.804688 C 69.230469 30.710938 69.441406 30.570312 69.613281 30.382812 C 69.789062 30.199219 69.925781 29.972656 70.019531 29.703125 C 70.113281 29.433594 70.160156 29.128906 70.160156 28.78125 Z M 70.160156 28.78125 "/><path style=" stroke:none;fill-rule:nonzero;fill:#4a5f74;fill-opacity:1;" d="M 76.5 30.945312 L 76.496094 31.238281 L 73.546875 31.238281 L 73.546875 26.328125 L 76.496094 26.328125 L 76.496094 26.625 L 73.910156 26.625 L 73.910156 28.605469 L 76.058594 28.605469 L 76.058594 28.894531 L 73.910156 28.894531 L 73.910156 30.945312 Z M 76.5 30.945312 "/><path style=" stroke:none;fill-rule:nonzero;fill:#4a5f74;fill-opacity:1;" d="M 81.363281 26.328125 L 81.363281 31.238281 L 81.199219 31.238281 C 81.167969 31.238281 81.144531 31.234375 81.121094 31.226562 C 81.105469 31.214844 81.085938 31.195312 81.070312 31.167969 L 77.878906 26.90625 C 77.882812 26.976562 77.886719 27.042969 77.886719 27.105469 L 77.886719 31.238281 L 77.574219 31.238281 L 77.574219 26.328125 L 77.753906 26.328125 C 77.785156 26.328125 77.808594 26.332031 77.828125 26.339844 C 77.84375 26.347656 77.863281 26.367188 77.882812 26.394531 L 81.070312 30.648438 C 81.0625 30.578125 81.058594 30.511719 81.058594 30.449219 L 81.058594 26.328125 Z M 81.363281 26.328125 "/><path style=" stroke:none;fill-rule:nonzero;fill:#4a5f74;fill-opacity:1;" d="M 88.246094 30.414062 C 88.265625 30.414062 88.285156 30.421875 88.304688 30.4375 L 88.441406 30.585938 C 88.339844 30.695312 88.230469 30.796875 88.109375 30.882812 C 87.988281 30.96875 87.859375 31.042969 87.71875 31.105469 C 87.578125 31.164062 87.421875 31.210938 87.25 31.242188 C 87.078125 31.277344 86.890625 31.292969 86.6875 31.292969 C 86.347656 31.292969 86.035156 31.234375 85.753906 31.117188 C 85.46875 30.996094 85.226562 30.828125 85.023438 30.609375 C 84.820312 30.390625 84.664062 30.125 84.550781 29.816406 C 84.4375 29.503906 84.382812 29.160156 84.382812 28.78125 C 84.382812 28.410156 84.441406 28.070312 84.554688 27.761719 C 84.671875 27.453125 84.832031 27.191406 85.039062 26.96875 C 85.246094 26.75 85.496094 26.578125 85.789062 26.457031 C 86.082031 26.335938 86.402344 26.273438 86.757812 26.273438 C 87.089844 26.273438 87.386719 26.324219 87.644531 26.429688 C 87.90625 26.53125 88.140625 26.679688 88.355469 26.871094 L 88.246094 27.023438 C 88.230469 27.054688 88.199219 27.066406 88.160156 27.066406 C 88.132812 27.066406 88.085938 27.042969 88.023438 26.992188 C 87.960938 26.9375 87.875 26.882812 87.761719 26.824219 C 87.652344 26.761719 87.515625 26.707031 87.347656 26.652344 C 87.183594 26.601562 86.988281 26.578125 86.757812 26.578125 C 86.460938 26.578125 86.1875 26.628906 85.941406 26.730469 C 85.695312 26.832031 85.480469 26.980469 85.304688 27.167969 C 85.128906 27.359375 84.992188 27.589844 84.890625 27.863281 C 84.792969 28.132812 84.742188 28.441406 84.742188 28.78125 C 84.742188 29.128906 84.792969 29.441406 84.894531 29.714844 C 84.996094 29.988281 85.132812 30.214844 85.308594 30.40625 C 85.484375 30.59375 85.691406 30.738281 85.929688 30.839844 C 86.171875 30.941406 86.429688 30.992188 86.707031 30.992188 C 86.882812 30.992188 87.039062 30.980469 87.175781 30.957031 C 87.3125 30.933594 87.441406 30.898438 87.558594 30.851562 C 87.671875 30.804688 87.78125 30.75 87.878906 30.679688 C 87.980469 30.613281 88.078125 30.535156 88.175781 30.445312 C 88.1875 30.4375 88.199219 30.429688 88.210938 30.425781 C 88.222656 30.417969 88.230469 30.414062 88.246094 30.414062 Z M 88.246094 30.414062 "/><path style=" stroke:none;fill-rule:nonzero;fill:#4a5f74;fill-opacity:1;" d="M 89.390625 26.328125 L 89.75 26.328125 L 89.75 31.238281 L 89.390625 31.238281 Z M 89.390625 26.328125 "/><path style=" stroke:none;fill-rule:nonzero;fill:#4a5f74;fill-opacity:1;" d="M 92.40625 28.753906 C 92.625 28.753906 92.820312 28.730469 92.992188 28.675781 C 93.164062 28.625 93.3125 28.546875 93.429688 28.453125 C 93.550781 28.355469 93.640625 28.238281 93.703125 28.101562 C 93.765625 27.964844 93.796875 27.8125 93.796875 27.640625 C 93.796875 27.289062 93.683594 27.03125 93.453125 26.863281 C 93.226562 26.695312 92.894531 26.609375 92.457031 26.609375 L 91.558594 26.609375 L 91.558594 28.753906 Z M 94.589844 31.238281 L 94.28125 31.238281 C 94.242188 31.238281 94.207031 31.234375 94.183594 31.222656 C 94.15625 31.210938 94.132812 31.183594 94.109375 31.148438 L 92.53125 29.15625 C 92.511719 29.132812 92.496094 29.109375 92.476562 29.089844 C 92.457031 29.074219 92.433594 29.058594 92.410156 29.046875 C 92.386719 29.035156 92.355469 29.03125 92.324219 29.023438 C 92.289062 29.019531 92.246094 29.019531 92.199219 29.019531 L 91.558594 29.019531 L 91.558594 31.238281 L 91.199219 31.238281 L 91.199219 26.328125 L 92.457031 26.328125 C 93.019531 26.328125 93.441406 26.4375 93.722656 26.65625 C 94.007812 26.875 94.148438 27.195312 94.148438 27.621094 C 94.148438 27.808594 94.117188 27.976562 94.050781 28.132812 C 93.984375 28.285156 93.890625 28.421875 93.769531 28.539062 C 93.648438 28.65625 93.503906 28.75 93.332031 28.824219 C 93.15625 28.898438 92.964844 28.949219 92.746094 28.976562 C 92.804688 29.011719 92.855469 29.058594 92.898438 29.117188 Z M 94.589844 31.238281 "/><path style=" stroke:none;fill-rule:nonzero;fill:#4a5f74;fill-opacity:1;" d="M 97.199219 30.988281 C 97.433594 30.988281 97.644531 30.945312 97.832031 30.867188 C 98.019531 30.785156 98.175781 30.667969 98.304688 30.523438 C 98.433594 30.378906 98.53125 30.207031 98.601562 30.007812 C 98.667969 29.808594 98.703125 29.59375 98.703125 29.363281 L 98.703125 26.328125 L 99.058594 26.328125 L 99.058594 29.363281 C 99.058594 29.636719 99.015625 29.890625 98.929688 30.125 C 98.84375 30.359375 98.722656 30.5625 98.558594 30.738281 C 98.398438 30.914062 98.203125 31.050781 97.972656 31.152344 C 97.742188 31.25 97.484375 31.300781 97.199219 31.300781 C 96.910156 31.300781 96.652344 31.25 96.421875 31.152344 C 96.191406 31.050781 95.996094 30.914062 95.835938 30.738281 C 95.675781 30.5625 95.550781 30.359375 95.464844 30.125 C 95.378906 29.890625 95.335938 29.636719 95.335938 29.363281 L 95.335938 26.328125 L 95.695312 26.328125 L 95.695312 29.359375 C 95.695312 29.589844 95.726562 29.804688 95.796875 30.003906 C 95.863281 30.203125 95.964844 30.375 96.089844 30.519531 C 96.21875 30.664062 96.375 30.78125 96.5625 30.863281 C 96.75 30.945312 96.960938 30.988281 97.199219 30.988281 Z M 97.199219 30.988281 "/><path style=" stroke:none;fill-rule:nonzero;fill:#4a5f74;fill-opacity:1;" d="M 104.371094 29.011719 L 104.371094 30.757812 C 104.121094 30.933594 103.859375 31.0625 103.582031 31.15625 C 103.304688 31.246094 102.992188 31.292969 102.644531 31.292969 C 102.257812 31.292969 101.910156 31.234375 101.597656 31.117188 C 101.289062 30.996094 101.023438 30.828125 100.804688 30.609375 C 100.585938 30.390625 100.417969 30.125 100.300781 29.816406 C 100.1875 29.503906 100.128906 29.160156 100.128906 28.78125 C 100.128906 28.402344 100.183594 28.058594 100.300781 27.75 C 100.414062 27.441406 100.578125 27.179688 100.789062 26.960938 C 101.003906 26.742188 101.261719 26.570312 101.566406 26.453125 C 101.871094 26.332031 102.210938 26.273438 102.59375 26.273438 C 102.777344 26.273438 102.949219 26.285156 103.105469 26.3125 C 103.265625 26.335938 103.414062 26.375 103.550781 26.425781 C 103.6875 26.476562 103.816406 26.535156 103.933594 26.609375 C 104.050781 26.683594 104.164062 26.765625 104.277344 26.859375 L 104.179688 27.011719 C 104.144531 27.066406 104.09375 27.082031 104.035156 27.050781 C 103.996094 27.035156 103.945312 27.003906 103.882812 26.953125 C 103.816406 26.902344 103.726562 26.847656 103.613281 26.796875 C 103.5 26.738281 103.359375 26.6875 103.191406 26.644531 C 103.023438 26.597656 102.820312 26.578125 102.582031 26.578125 C 102.261719 26.578125 101.972656 26.628906 101.714844 26.730469 C 101.453125 26.832031 101.234375 26.980469 101.054688 27.167969 C 100.871094 27.359375 100.730469 27.589844 100.632812 27.863281 C 100.535156 28.132812 100.488281 28.441406 100.488281 28.78125 C 100.488281 29.128906 100.535156 29.4375 100.632812 29.714844 C 100.730469 29.988281 100.875 30.222656 101.058594 30.414062 C 101.246094 30.605469 101.472656 30.753906 101.742188 30.855469 C 102.007812 30.957031 102.308594 31.007812 102.640625 31.007812 C 102.785156 31.007812 102.917969 31 103.042969 30.980469 C 103.167969 30.960938 103.285156 30.933594 103.398438 30.902344 C 103.507812 30.871094 103.617188 30.828125 103.722656 30.777344 C 103.828125 30.726562 103.9375 30.671875 104.046875 30.605469 L 104.046875 29.285156 L 103.105469 29.285156 C 103.078125 29.285156 103.058594 29.28125 103.039062 29.261719 C 103.023438 29.246094 103.011719 29.226562 103.011719 29.207031 L 103.011719 29.011719 Z M 104.371094 29.011719 "/><path style=" stroke:none;fill-rule:nonzero;fill:#4a5f74;fill-opacity:1;" d="M 105.90625 31.238281 L 105.546875 31.238281 L 105.546875 26.328125 L 105.90625 26.328125 Z M 106.871094 24.847656 L 105.734375 25.847656 C 105.710938 25.863281 105.691406 25.875 105.671875 25.878906 C 105.648438 25.882812 105.625 25.886719 105.597656 25.886719 L 105.371094 25.886719 L 106.265625 24.925781 C 106.292969 24.894531 106.324219 24.871094 106.351562 24.863281 C 106.378906 24.855469 106.421875 24.847656 106.476562 24.847656 Z M 106.871094 24.847656 "/><path style=" stroke:none;fill-rule:nonzero;fill:#4a5f74;fill-opacity:1;" d="M 110.003906 29.457031 L 109.003906 26.972656 C 108.96875 26.894531 108.9375 26.796875 108.902344 26.679688 C 108.890625 26.738281 108.875 26.789062 108.859375 26.839844 C 108.84375 26.890625 108.824219 26.933594 108.804688 26.976562 L 107.808594 29.457031 Z M 111.089844 31.238281 L 110.816406 31.238281 C 110.78125 31.238281 110.757812 31.230469 110.734375 31.214844 C 110.714844 31.199219 110.699219 31.175781 110.6875 31.144531 L 110.109375 29.71875 L 107.699219 29.71875 L 107.121094 31.144531 C 107.113281 31.171875 107.097656 31.195312 107.074219 31.210938 C 107.050781 31.230469 107.023438 31.238281 106.988281 31.238281 L 106.722656 31.238281 L 108.730469 26.328125 L 109.082031 26.328125 Z M 111.089844 31.238281 "/><path style=" stroke:none;fill-rule:nonzero;fill:#4a5f74;fill-opacity:1;" d="M 114.832031 28.976562 C 115.046875 28.976562 115.238281 28.945312 115.410156 28.886719 C 115.582031 28.824219 115.726562 28.742188 115.84375 28.636719 C 115.964844 28.53125 116.054688 28.402344 116.117188 28.261719 C 116.183594 28.113281 116.214844 27.957031 116.214844 27.785156 C 116.214844 27.410156 116.097656 27.117188 115.867188 26.917969 C 115.636719 26.714844 115.292969 26.609375 114.832031 26.609375 L 113.917969 26.609375 L 113.917969 28.976562 Z M 114.832031 26.328125 C 115.40625 26.328125 115.84375 26.453125 116.132812 26.707031 C 116.425781 26.960938 116.570312 27.320312 116.570312 27.785156 C 116.570312 28 116.53125 28.199219 116.449219 28.382812 C 116.371094 28.5625 116.253906 28.714844 116.105469 28.847656 C 115.953125 28.976562 115.769531 29.078125 115.554688 29.152344 C 115.339844 29.226562 115.097656 29.261719 114.832031 29.261719 L 113.917969 29.261719 L 113.917969 31.238281 L 113.558594 31.238281 L 113.558594 26.328125 Z M 114.832031 26.328125 "/><path style=" stroke:none;fill-rule:nonzero;fill:#4a5f74;fill-opacity:1;" d="M 120.253906 30.9375 L 120.253906 31.238281 L 117.570312 31.238281 L 117.570312 26.328125 L 117.929688 26.328125 L 117.929688 30.9375 Z M 120.253906 30.9375 "/><path style=" stroke:none;fill-rule:nonzero;fill:#4a5f74;fill-opacity:1;" d="M 123.734375 29.457031 L 122.734375 26.972656 C 122.699219 26.894531 122.664062 26.796875 122.632812 26.679688 C 122.617188 26.738281 122.601562 26.789062 122.585938 26.839844 C 122.570312 26.890625 122.554688 26.933594 122.535156 26.976562 L 121.539062 29.457031 Z M 124.820312 31.238281 L 124.542969 31.238281 C 124.511719 31.238281 124.484375 31.230469 124.464844 31.214844 C 124.441406 31.199219 124.425781 31.175781 124.414062 31.144531 L 123.839844 29.71875 L 121.429688 29.71875 L 120.851562 31.144531 C 120.839844 31.171875 120.824219 31.195312 120.804688 31.210938 C 120.78125 31.230469 120.753906 31.238281 120.71875 31.238281 L 120.449219 31.238281 L 122.460938 26.328125 L 122.808594 26.328125 Z M 123.769531 24.847656 L 122.632812 25.847656 C 122.609375 25.863281 122.585938 25.875 122.566406 25.878906 C 122.546875 25.882812 122.523438 25.886719 122.492188 25.886719 L 122.269531 25.886719 L 123.164062 24.925781 C 123.191406 24.894531 123.21875 24.871094 123.246094 24.863281 C 123.277344 24.855469 123.320312 24.847656 123.375 24.847656 Z M 123.769531 24.847656 "/><path style=" stroke:none;fill-rule:nonzero;fill:#4a5f74;fill-opacity:1;" d="M 128.019531 26.921875 C 128 26.964844 127.96875 26.984375 127.929688 26.984375 C 127.898438 26.984375 127.859375 26.964844 127.8125 26.921875 C 127.761719 26.878906 127.699219 26.832031 127.617188 26.777344 C 127.539062 26.726562 127.4375 26.675781 127.316406 26.632812 C 127.195312 26.589844 127.042969 26.566406 126.863281 26.566406 C 126.6875 26.566406 126.53125 26.59375 126.394531 26.644531 C 126.257812 26.695312 126.144531 26.765625 126.054688 26.851562 C 125.964844 26.941406 125.894531 27.042969 125.847656 27.160156 C 125.800781 27.273438 125.777344 27.394531 125.777344 27.523438 C 125.777344 27.6875 125.8125 27.828125 125.882812 27.9375 C 125.953125 28.042969 126.046875 28.136719 126.160156 28.214844 C 126.277344 28.289062 126.410156 28.351562 126.554688 28.40625 C 126.703125 28.457031 126.855469 28.507812 127.007812 28.558594 C 127.164062 28.613281 127.3125 28.667969 127.460938 28.726562 C 127.609375 28.789062 127.738281 28.867188 127.855469 28.960938 C 127.972656 29.054688 128.0625 29.164062 128.132812 29.300781 C 128.207031 29.433594 128.242188 29.601562 128.242188 29.804688 C 128.242188 30.011719 128.207031 30.207031 128.132812 30.386719 C 128.0625 30.570312 127.960938 30.726562 127.828125 30.863281 C 127.691406 30.996094 127.527344 31.101562 127.332031 31.179688 C 127.140625 31.253906 126.917969 31.292969 126.667969 31.292969 C 126.34375 31.292969 126.0625 31.238281 125.832031 31.121094 C 125.597656 31.007812 125.394531 30.851562 125.21875 30.652344 L 125.316406 30.5 C 125.34375 30.464844 125.375 30.449219 125.410156 30.449219 C 125.433594 30.449219 125.457031 30.464844 125.492188 30.492188 C 125.523438 30.519531 125.5625 30.554688 125.609375 30.59375 C 125.65625 30.632812 125.710938 30.675781 125.777344 30.726562 C 125.84375 30.773438 125.917969 30.816406 126.003906 30.855469 C 126.085938 30.894531 126.183594 30.933594 126.296875 30.960938 C 126.40625 30.988281 126.535156 31 126.675781 31 C 126.867188 31 127.042969 30.972656 127.195312 30.914062 C 127.347656 30.851562 127.476562 30.773438 127.582031 30.671875 C 127.6875 30.570312 127.769531 30.449219 127.824219 30.308594 C 127.878906 30.167969 127.910156 30.019531 127.910156 29.859375 C 127.910156 29.683594 127.871094 29.542969 127.800781 29.429688 C 127.730469 29.316406 127.636719 29.222656 127.519531 29.148438 C 127.40625 29.074219 127.277344 29.011719 127.128906 28.960938 C 126.980469 28.910156 126.832031 28.859375 126.675781 28.8125 C 126.519531 28.761719 126.371094 28.707031 126.222656 28.648438 C 126.074219 28.585938 125.945312 28.511719 125.828125 28.417969 C 125.714844 28.324219 125.621094 28.207031 125.546875 28.066406 C 125.476562 27.925781 125.445312 27.75 125.445312 27.539062 C 125.445312 27.375 125.472656 27.21875 125.535156 27.066406 C 125.597656 26.914062 125.691406 26.777344 125.8125 26.660156 C 125.933594 26.542969 126.082031 26.449219 126.253906 26.382812 C 126.433594 26.308594 126.632812 26.273438 126.859375 26.273438 C 127.117188 26.273438 127.347656 26.3125 127.546875 26.394531 C 127.75 26.476562 127.933594 26.597656 128.105469 26.765625 Z M 128.019531 26.921875 "/><path style=" stroke:none;fill-rule:nonzero;fill:#4a5f74;fill-opacity:1;" d="M 132.539062 26.628906 L 130.816406 26.628906 L 130.816406 31.238281 L 130.457031 31.238281 L 130.457031 26.628906 L 128.722656 26.628906 L 128.722656 26.328125 L 132.539062 26.328125 Z M 132.539062 26.628906 "/><path style=" stroke:none;fill-rule:nonzero;fill:#4a5f74;fill-opacity:1;" d="M 133.363281 26.328125 L 133.726562 26.328125 L 133.726562 31.238281 L 133.363281 31.238281 Z M 133.363281 26.328125 "/><path style=" stroke:none;fill-rule:nonzero;fill:#4a5f74;fill-opacity:1;" d="M 138.71875 30.414062 C 138.738281 30.414062 138.761719 30.421875 138.777344 30.4375 L 138.917969 30.585938 C 138.816406 30.695312 138.703125 30.796875 138.582031 30.882812 C 138.464844 30.96875 138.335938 31.042969 138.191406 31.105469 C 138.050781 31.164062 137.894531 31.210938 137.726562 31.242188 C 137.554688 31.277344 137.367188 31.292969 137.164062 31.292969 C 136.824219 31.292969 136.511719 31.234375 136.226562 31.117188 C 135.945312 30.996094 135.699219 30.828125 135.496094 30.609375 C 135.292969 30.390625 135.136719 30.125 135.023438 29.816406 C 134.910156 29.503906 134.855469 29.160156 134.855469 28.78125 C 134.855469 28.410156 134.914062 28.070312 135.027344 27.761719 C 135.144531 27.453125 135.304688 27.191406 135.511719 26.96875 C 135.722656 26.75 135.972656 26.578125 136.261719 26.457031 C 136.554688 26.335938 136.878906 26.273438 137.230469 26.273438 C 137.5625 26.273438 137.859375 26.324219 138.117188 26.429688 C 138.378906 26.53125 138.617188 26.679688 138.828125 26.871094 L 138.722656 27.023438 C 138.703125 27.054688 138.675781 27.066406 138.632812 27.066406 C 138.605469 27.066406 138.5625 27.042969 138.5 26.992188 C 138.4375 26.9375 138.347656 26.882812 138.238281 26.824219 C 138.125 26.761719 137.988281 26.707031 137.824219 26.652344 C 137.660156 26.601562 137.460938 26.578125 137.230469 26.578125 C 136.933594 26.578125 136.660156 26.628906 136.414062 26.730469 C 136.167969 26.832031 135.957031 26.980469 135.777344 27.167969 C 135.605469 27.359375 135.464844 27.589844 135.363281 27.863281 C 135.265625 28.132812 135.214844 28.441406 135.214844 28.78125 C 135.214844 29.128906 135.265625 29.441406 135.367188 29.714844 C 135.46875 29.988281 135.605469 30.214844 135.78125 30.40625 C 135.957031 30.59375 136.164062 30.738281 136.40625 30.839844 C 136.644531 30.941406 136.902344 30.992188 137.179688 30.992188 C 137.355469 30.992188 137.511719 30.980469 137.652344 30.957031 C 137.785156 30.933594 137.914062 30.898438 138.03125 30.851562 C 138.148438 30.804688 138.253906 30.75 138.355469 30.679688 C 138.453125 30.613281 138.550781 30.535156 138.652344 30.445312 C 138.660156 30.4375 138.671875 30.429688 138.683594 30.425781 C 138.695312 30.417969 138.707031 30.414062 138.71875 30.414062 Z M 138.71875 30.414062 "/><path style=" stroke:none;fill-rule:nonzero;fill:#4a5f74;fill-opacity:1;" d="M 142.515625 29.457031 L 141.515625 26.972656 C 141.480469 26.894531 141.445312 26.796875 141.414062 26.679688 C 141.398438 26.738281 141.386719 26.789062 141.371094 26.839844 C 141.355469 26.890625 141.335938 26.933594 141.316406 26.976562 L 140.320312 29.457031 Z M 143.601562 31.238281 L 143.324219 31.238281 C 143.292969 31.238281 143.265625 31.230469 143.246094 31.214844 C 143.226562 31.199219 143.207031 31.175781 143.199219 31.144531 L 142.621094 29.71875 L 140.210938 29.71875 L 139.632812 31.144531 C 139.621094 31.171875 139.605469 31.195312 139.585938 31.210938 C 139.5625 31.230469 139.535156 31.238281 139.5 31.238281 L 139.230469 31.238281 L 141.242188 26.328125 L 141.59375 26.328125 Z M 143.601562 31.238281 "/><path style=" stroke:none;fill-rule:nonzero;fill:#4a5f74;fill-opacity:1;" d="M 27.816406 26.410156 C 27.941406 26.300781 27.933594 26.066406 27.816406 25.953125 C 27.695312 25.835938 27.472656 25.835938 27.355469 25.953125 C 27.242188 26.066406 27.242188 26.292969 27.355469 26.410156 C 27.472656 26.527344 27.707031 26.535156 27.816406 26.410156 Z M 27.816406 26.410156 "/><path style=" stroke:none;fill-rule:nonzero;fill:#4a5f74;fill-opacity:1;" d="M 23.453125 21.597656 C 24.265625 19.953125 24.910156 18.199219 25.042969 16.863281 C 25.226562 15.0625 24.488281 14.011719 23.070312 13.523438 C 21.65625 13.035156 19.5625 13.109375 18.351562 14 C 17.140625 14.890625 16.804688 16.597656 17.085938 18.121094 C 17.359375 19.644531 18.25 20.980469 19.492188 21.871094 C 20.019531 22.25 20.613281 22.546875 21.335938 22.675781 C 20.480469 23.511719 19.53125 23.996094 18.457031 23.933594 C 17.320312 23.867188 16.042969 23.179688 15.039062 22.167969 C 14.035156 21.15625 13.300781 19.816406 12.796875 18.429688 C 12.292969 17.039062 12.015625 15.597656 12.453125 14.164062 C 12.890625 12.730469 14.042969 11.304688 15.277344 10.425781 C 16.515625 9.550781 17.835938 9.222656 19.246094 9.289062 C 20.65625 9.355469 22.15625 9.816406 23.550781 11.429688 C 20.078125 7.105469 16.410156 8.714844 14.269531 10.558594 C 12.128906 12.402344 11.519531 14.484375 11.71875 16.515625 C 11.917969 18.542969 12.925781 20.523438 14.242188 22.484375 C 15.558594 24.445312 17.183594 26.394531 18.636719 26.601562 C 20.089844 26.8125 21.375 25.285156 22.566406 23.246094 C 22.671875 23.070312 22.773438 22.886719 22.875 22.703125 C 23.207031 22.664062 23.5625 22.59375 23.941406 22.488281 C 24.132812 22.4375 24.328125 22.378906 24.53125 22.308594 C 24.734375 22.238281 24.945312 22.160156 25.160156 22.074219 C 25.777344 21.828125 26.457031 21.503906 27.097656 21.054688 C 27.738281 20.605469 28.34375 20.03125 28.824219 19.285156 C 29.0625 18.910156 29.269531 18.496094 29.429688 18.019531 C 29.589844 17.542969 29.703125 17.007812 29.773438 16.453125 C 29.839844 15.898438 29.863281 15.324219 29.78125 14.546875 C 29.699219 13.769531 29.507812 12.789062 29.390625 12.28125 C 29.277344 11.804688 29.230469 11.746094 29.15625 11.589844 C 29.082031 11.4375 28.980469 11.183594 28.875 10.949219 C 28.660156 10.480469 28.417969 10.082031 28.144531 9.691406 C 27.867188 9.300781 27.554688 8.921875 27.222656 8.582031 C 26.886719 8.238281 26.527344 7.9375 26.152344 7.664062 C 25.238281 6.996094 24.226562 6.480469 23.117188 6.109375 C 22.007812 5.738281 20.808594 5.511719 19.625 5.457031 C 17.257812 5.351562 14.957031 5.9375 12.96875 7.101562 C 10.980469 8.265625 9.304688 10.011719 8.230469 12.074219 C 7.15625 14.128906 6.6875 16.5 6.898438 18.8125 C 7.109375 21.121094 8 23.371094 9.394531 25.210938 C 10.792969 27.050781 12.691406 28.480469 14.871094 29.265625 C 18.734375 30.65625 23.46875 30.027344 26.679688 27.414062 C 26.746094 27.359375 26.792969 27.28125 26.804688 27.195312 C 26.816406 27.109375 26.789062 27.019531 26.738281 26.953125 C 26.683594 26.886719 26.605469 26.839844 26.519531 26.828125 C 26.433594 26.816406 26.34375 26.84375 26.277344 26.894531 C 24.695312 28.152344 22.578125 29.039062 20.414062 29.28125 C 18.25 29.523438 16.035156 29.117188 14.152344 28.238281 C 13.207031 27.796875 12.347656 27.238281 11.542969 26.535156 C 10.742188 25.832031 10 24.984375 9.398438 24.074219 C 8.195312 22.25 7.5625 20.164062 7.511719 18.042969 C 7.460938 15.921875 7.996094 13.757812 9.066406 11.90625 C 10.136719 10.054688 11.742188 8.515625 13.605469 7.496094 C 15.46875 6.476562 17.585938 5.984375 19.777344 6.125 C 20.871094 6.195312 21.988281 6.429688 22.976562 6.753906 C 23.964844 7.078125 24.824219 7.496094 25.882812 8.292969 C 26.152344 8.496094 26.429688 8.71875 26.695312 8.976562 C 26.960938 9.230469 27.210938 9.515625 27.429688 9.8125 C 27.871094 10.402344 28.1875 11.027344 28.4375 11.734375 C 28.929688 13.144531 29.128906 14.886719 28.925781 16.300781 C 28.726562 17.714844 28.125 18.800781 27.207031 19.699219 C 26.285156 20.601562 25.042969 21.316406 23.699219 21.558594 C 23.617188 21.574219 23.535156 21.585938 23.453125 21.597656 Z M 22.234375 21.636719 C 21.371094 21.574219 20.550781 21.304688 19.917969 20.816406 C 18.921875 20.054688 18.378906 18.753906 18.3125 17.332031 C 18.25 15.910156 18.664062 14.367188 19.910156 13.863281 C 21.15625 13.359375 23.234375 13.898438 24.046875 14.929688 C 24.863281 15.957031 24.414062 17.476562 23.792969 18.886719 C 23.351562 19.890625 22.824219 20.839844 22.234375 21.636719 Z M 22.234375 21.636719 "/><g clip-rule="nonzero" clip-path="url(#bca58f1a72)"><g clip-rule="nonzero" clip-path="url(#8d40377d0b)"><path style=" stroke:none;fill-rule:nonzero;fill:#4a5f74;fill-opacity:1;" d="M 27.144531 25.632812 L 28.347656 25.632812 L 28.347656 26.832031 L 27.144531 26.832031 Z M 27.144531 25.632812 "/></g></g></g></svg>